<?xml version="1.0" encoding="utf-8"?>
<svg width="800px" height="800px" viewBox="0 0 24 24" fill="none" xmlns="http://www.w3.org/2000/svg">
  <path d="M9 13.5858L10.2929 14.8787C10.6834 15.2692 11.3166 15.2692 11.7071 14.8787L16.7071 9.87868C17.0976 9.48816 17.0976 8.855 16.7071 8.46447C16.3166 8.07395 15.6834 8.07395 15.2929 8.46447L11 12.7574L9.70711 11.4645C9.31658 11.0739 8.68342 11.0739 8.29289 11.4645C7.90237 11.855 7.90237 12.4882 8.29289 12.8787L9 13.5858Z" fill="#0F0F0F"/>
  <path fill-rule="evenodd" clip-rule="evenodd" d="M23 4C23 2.34315 21.6569 1 20 1H4C2.34315 1 1 2.34315 1 4V20C1 21.6569 2.34315 23 4 23H20C21.6569 23 23 21.6569 23 20V4ZM21 4C21 3.44772 20.5523 3 20 3H4C3.44772 3 3 3.44772 3 4V20C3 20.5523 3.44772 21 4 21H20C20.5523 21 21 20.5523 21 20V4Z" fill="#0F0F0F"/>
</svg>
